<svg xmlns="http://www.w3.org/2000/svg" viewBox="0 0 217.32 247.38"><g id="Capa_2" data-name="Capa 2"><g id="Capa_1-2" data-name="Capa 1"><path d="M115.59,0,97.85,15.4c16.57,52.91,61.1,72,76.18,82.5,51.2,37.21,23.5,65.6,17.32,74.77,58.61-58.16,2.71-93.62-18.81-103.84C172.54,68.83,121.93,47.79,115.59,0Z" style="fill:#73a8d6"/><path d="M79.87,50.25,97.55,31.53s12,36.53,47.6,57.23c14.59,8.92,92,46.36,25.23,101.38,6.18-7.87,44.52-45.06-26.22-81.73C133,101.34,107.06,92.7,79.87,50.25Z" style="fill:#73a8d6"/><path d="M159.71,197.47s24.12-46.56-23.61-64.37C110.38,123.67,79.35,105.28,62.53,78a205.47,205.47,0,0,0,14.1-15.18s19.52,29.59,60.82,55.27C154.78,128.85,206.47,148,159.71,197.47Z" style="fill:#73a8d6"/><path d="M101.72,247.38,119.46,232C102.9,179.09,58.38,160,43.29,149.48-7.91,112.28,19.8,83.89,26,74.73c-58.61,58.16-2.71,93.62,18.8,103.83C44.77,178.56,95.38,199.6,101.72,247.38Z" style="fill:#213b7e"/><path d="M137.45,197.13l-17.68,18.74s-12-36.53-47.59-57.24c-14.61-8.9-92-46.37-25.24-101.37C40.76,65.12,2.43,102.31,73.16,139,84.28,146.06,110.25,154.71,137.45,197.13Z" style="fill:#213b7e"/><path d="M57.6,49.92S21,97.85,90,119.07c25.71,9.43,48,23.05,64.8,50.3a206.86,206.86,0,0,0-14.1,15.19S121.16,155,79.85,129.29C62.54,118.55,10.85,99.42,57.6,49.92Z" style="fill:#213b7e"/></g></g></svg>